<?xml version="1.0" encoding="utf-8"?>
<!-- Generator: Adobe Illustrator 23.0.4, SVG Export Plug-In . SVG Version: 6.00 Build 0)  -->
<svg version="1.1" id="Layer_1" xmlns="http://www.w3.org/2000/svg" xmlns:xlink="http://www.w3.org/1999/xlink" x="0px" y="0px"
	 viewBox="0 0 86.2 27.1" style="enable-background:new 0 0 86.2 27.1;" xml:space="preserve">
<style type="text/css">
	.st0{fill:#00B9EE;}
	.st1{fill:#FFFFFF;}
	.st2{fill:#706F6F;}
</style>
<title>telefono [Recovered]</title>
<path class="st0" d="M0,13.6C0,21,6.1,27.1,13.6,27.1c0,0,0,0,0,0h13.5l-5.1-3c5.9-4.7,6.8-13.2,2.1-19S11-1.7,5.1,2.9
	C1.9,5.5,0,9.4,0,13.6"/>
<path class="st1" d="M19.9,6.9c-0.2-0.2-0.6-0.1-0.8,0.1l-7.6,8.4l-2.9-1.8c-0.3-0.2-0.6-0.1-0.8,0.2c-0.1,0.2-0.1,0.4,0,0.6
	l3.2,5.8c0.1,0.2,0.3,0.3,0.5,0.3l0,0c0.2,0,0.4-0.1,0.5-0.3L20,7.7C20.2,7.4,20.1,7.1,19.9,6.9"/>
<g>
	<path class="st2" d="M33,4h1v6.2h-1V4z"/>
	<path class="st2" d="M37.3,9.3c0.8,0,1.3-0.3,1.3-0.9c0-0.5-0.3-0.7-0.8-0.8c-0.3,0-0.5-0.1-0.9-0.1c-0.6-0.1-1-0.3-1.3-0.6
		c-0.3-0.3-0.4-0.7-0.4-1.1c0-0.5,0.2-1,0.6-1.3C36.1,4.1,36.6,4,37.3,4c0.8,0,1.5,0.2,2.1,0.6l-0.5,0.8c-0.5-0.3-1-0.5-1.6-0.5
		c-0.3,0-0.6,0.1-0.8,0.2c-0.2,0.1-0.3,0.4-0.3,0.7c0,0.2,0.1,0.3,0.2,0.5c0.1,0.1,0.4,0.2,0.7,0.3c0.2,0,0.4,0.1,0.7,0.1
		c0.6,0.1,1.1,0.3,1.3,0.6c0.3,0.3,0.4,0.7,0.4,1.2c0,1.2-0.8,1.8-2.3,1.8c-1,0-1.8-0.3-2.5-0.8l0.6-0.7C36,9.1,36.6,9.3,37.3,9.3z"
		/>
	<path class="st2" d="M40.4,7.1c0-0.7,0-1.2,0.1-1.4c0-0.2,0.1-0.4,0.2-0.6c0.2-0.3,0.4-0.5,0.8-0.8C41.8,4.1,42.2,4,42.7,4
		c0.5,0,0.9,0.1,1.3,0.3c0.3,0.2,0.6,0.5,0.7,0.8c0.1,0.1,0.2,0.3,0.2,0.6C45,5.9,45,6.4,45,7.1c0,0.7,0,1.2-0.1,1.4
		c0,0.2-0.1,0.4-0.2,0.6c-0.2,0.3-0.4,0.5-0.7,0.8c-0.3,0.2-0.8,0.3-1.3,0.4c-0.5,0-0.9-0.1-1.3-0.4c-0.3-0.2-0.6-0.5-0.8-0.8
		c0-0.1-0.1-0.2-0.1-0.3c0-0.1-0.1-0.2-0.1-0.3C40.4,8.3,40.4,7.8,40.4,7.1z M41.4,7.1c0,0.6,0,1,0.1,1.2c0,0.2,0.1,0.4,0.3,0.5
		c0.1,0.1,0.2,0.2,0.4,0.3c0.2,0.1,0.4,0.1,0.6,0.1c0.2,0,0.4,0,0.6-0.1c0.2-0.1,0.3-0.2,0.4-0.3c0.1-0.1,0.2-0.3,0.3-0.5
		C44,8.1,44,7.7,44,7.1s0-1-0.1-1.2c0-0.2-0.1-0.4-0.3-0.5c-0.1-0.1-0.2-0.2-0.4-0.3c-0.2-0.1-0.4-0.1-0.6-0.1c-0.2,0-0.4,0-0.6,0.1
		c-0.2,0.1-0.3,0.2-0.4,0.3c-0.1,0.1-0.2,0.3-0.3,0.5C41.4,6.1,41.4,6.5,41.4,7.1z"/>
	<path class="st2" d="M48.6,10.2c0,0,0-0.1,0.1-0.2c0.1-0.1,0.1-0.2,0.2-0.4c0.1-0.2,0.2-0.3,0.3-0.5c0.1-0.2,0.2-0.4,0.3-0.6
		c0.1-0.2,0.2-0.4,0.3-0.5C49.9,7.8,50,7.7,50,7.6c-0.1,0-0.2,0.1-0.3,0.1c-0.1,0-0.2,0-0.4,0c-0.2,0-0.4,0-0.5-0.1
		c-0.1-0.1-0.3-0.1-0.4-0.2c-0.1-0.1-0.2-0.2-0.3-0.3c-0.1-0.1-0.1-0.2-0.2-0.3s-0.1-0.2-0.1-0.3s0-0.2,0-0.2c0,0,0,0,0-0.1
		c0,0,0-0.1,0-0.2s0-0.1,0-0.2c0-0.1,0-0.1,0-0.1c0,0,0-0.1,0-0.2c0-0.1,0-0.2,0.1-0.3c0-0.1,0.1-0.2,0.2-0.4
		c0.1-0.1,0.2-0.2,0.3-0.4c0.1-0.1,0.3-0.2,0.5-0.3S49.4,4,49.7,4c0.3,0,0.5,0,0.7,0c0.2,0.1,0.4,0.1,0.5,0.2
		c0.1,0.1,0.3,0.2,0.4,0.4s0.2,0.3,0.2,0.4c0.1,0.1,0.1,0.3,0.1,0.4c0,0.1,0,0.2,0,0.3c0,0.1,0,0.3-0.1,0.4c0,0.1,0,0.2-0.1,0.3
		c0,0.1-0.1,0.2-0.1,0.3c0,0.1-0.1,0.2-0.1,0.3c0,0,0,0.1-0.1,0.2c-0.1,0.1-0.1,0.2-0.2,0.4c-0.1,0.2-0.2,0.3-0.3,0.5
		c-0.1,0.2-0.2,0.4-0.3,0.6c-0.2,0.4-0.5,0.9-0.8,1.5H48.6z M48.8,5.7c0,0.1,0,0.2,0,0.4c0,0.1,0,0.3,0.1,0.4s0.1,0.2,0.3,0.3
		c0.1,0.1,0.3,0.1,0.5,0.1c0.1,0,0.2,0,0.3,0c0.1,0,0.2-0.1,0.2-0.1c0.1-0.1,0.1-0.1,0.2-0.2c0.1-0.1,0.1-0.1,0.1-0.2
		c0-0.1,0.1-0.1,0.1-0.2c0-0.1,0-0.1,0-0.1c0-0.1,0-0.1,0-0.2c0-0.1,0-0.2,0-0.3c0-0.1,0-0.2-0.1-0.3c0-0.1-0.1-0.2-0.2-0.2
		c-0.1-0.1-0.2-0.1-0.3-0.1c-0.1,0-0.2,0-0.4,0c-0.2,0-0.3,0.1-0.5,0.1c-0.1,0.1-0.2,0.2-0.3,0.3c-0.1,0.1-0.1,0.2-0.1,0.3
		S48.8,5.7,48.8,5.7z"/>
	<path class="st2" d="M52.4,5.7c0-0.6,0.2-1,0.6-1.3C53.3,4.1,53.7,4,54.2,4c0.5,0,0.9,0.2,1.3,0.5C55.9,4.7,56,5.2,56,5.7v2.7
		c0,0.6-0.2,1-0.6,1.3c-0.4,0.3-0.8,0.5-1.3,0.5c-0.5,0-0.9-0.2-1.3-0.5c-0.4-0.3-0.6-0.7-0.6-1.3V5.7z M55.1,5.8
		c0-0.6-0.3-0.9-0.9-0.9c-0.6,0-0.9,0.3-0.9,0.9v2.6c0,0.6,0.3,0.9,0.9,0.9c0.6,0,0.9-0.3,0.9-0.9V5.8z"/>
	<path class="st2" d="M56.7,5.7c0-0.6,0.2-1,0.6-1.3C57.7,4.1,58.1,4,58.6,4c0.5,0,0.9,0.2,1.3,0.5c0.4,0.3,0.5,0.7,0.6,1.3v2.7
		c0,0.6-0.2,1-0.6,1.3c-0.4,0.3-0.8,0.5-1.3,0.5c-0.5,0-0.9-0.2-1.3-0.5c-0.4-0.3-0.6-0.7-0.6-1.3V5.7z M59.5,5.8
		c0-0.6-0.3-0.9-0.9-0.9c-0.6,0-0.9,0.3-0.9,0.9v2.6c0,0.6,0.3,0.9,0.9,0.9c0.6,0,0.9-0.3,0.9-0.9V5.8z"/>
	<path class="st2" d="M61.6,5.6V4.7L62.5,4h0.9v6.2h-0.9V5L61.6,5.6z"/>
	<path class="st2" d="M33,12.3h1v6.2h-1V12.3z"/>
	<path class="st2" d="M37.3,17.6c0.8,0,1.3-0.3,1.3-0.9c0-0.5-0.3-0.7-0.8-0.8c-0.3,0-0.5-0.1-0.9-0.1c-0.6-0.1-1-0.3-1.3-0.6
		c-0.3-0.3-0.4-0.7-0.4-1.1c0-0.5,0.2-1,0.6-1.3c0.4-0.3,0.9-0.5,1.6-0.5c0.8,0,1.5,0.2,2.1,0.6l-0.5,0.8c-0.5-0.3-1-0.5-1.6-0.5
		c-0.3,0-0.6,0.1-0.8,0.2c-0.2,0.1-0.3,0.4-0.3,0.7c0,0.2,0.1,0.3,0.2,0.5c0.1,0.1,0.4,0.2,0.7,0.3c0.2,0,0.4,0.1,0.7,0.1
		c0.6,0.1,1.1,0.3,1.3,0.6c0.3,0.3,0.4,0.7,0.4,1.2c0,1.2-0.8,1.8-2.3,1.8c-1,0-1.8-0.3-2.5-0.8l0.6-0.7
		C36,17.4,36.6,17.6,37.3,17.6z"/>
	<path class="st2" d="M40.4,15.4c0-0.7,0-1.2,0.1-1.4c0-0.2,0.1-0.4,0.2-0.6c0.2-0.3,0.4-0.5,0.8-0.8c0.3-0.2,0.8-0.3,1.3-0.3
		c0.5,0,0.9,0.1,1.3,0.3c0.3,0.2,0.6,0.5,0.7,0.8c0.1,0.1,0.2,0.3,0.2,0.6c0,0.2,0.1,0.7,0.1,1.4c0,0.7,0,1.2-0.1,1.4
		c0,0.2-0.1,0.4-0.2,0.6c-0.2,0.3-0.4,0.5-0.7,0.8c-0.3,0.2-0.8,0.3-1.3,0.4c-0.5,0-0.9-0.1-1.3-0.4c-0.3-0.2-0.6-0.5-0.8-0.8
		c0-0.1-0.1-0.2-0.1-0.3c0-0.1-0.1-0.2-0.1-0.3C40.4,16.6,40.4,16.1,40.4,15.4z M41.4,15.4c0,0.6,0,1,0.1,1.2c0,0.2,0.1,0.4,0.3,0.5
		c0.1,0.1,0.2,0.2,0.4,0.3c0.2,0.1,0.4,0.1,0.6,0.1c0.2,0,0.4,0,0.6-0.1c0.2-0.1,0.3-0.2,0.4-0.3c0.1-0.1,0.2-0.3,0.3-0.5
		c0-0.2,0.1-0.6,0.1-1.2c0-0.6,0-1-0.1-1.2c0-0.2-0.1-0.4-0.3-0.5c-0.1-0.1-0.2-0.2-0.4-0.3c-0.2-0.1-0.4-0.1-0.6-0.1
		c-0.2,0-0.4,0-0.6,0.1c-0.2,0.1-0.3,0.2-0.4,0.3c-0.1,0.1-0.2,0.3-0.3,0.5C41.4,14.4,41.4,14.8,41.4,15.4z"/>
	<path class="st2" d="M47.8,16.7l2.2-4.4h1l-2.2,4.4h1.7V15h0.9v1.8h0.5v0.8h-0.5v0.9h-0.9v-0.9h-2.7V16.7z"/>
	<path class="st2" d="M52.5,12.3h3.5v0.9h-2.6v1.4c0.3-0.2,0.6-0.3,1-0.3c0.2,0,0.5,0,0.7,0.1c0.2,0.1,0.4,0.2,0.5,0.3
		c0.2,0.2,0.3,0.4,0.4,0.6c0,0.1,0.1,0.3,0.1,0.4c0,0.2,0,0.4,0,0.7c0,0.4,0,0.7-0.1,0.9c-0.1,0.2-0.2,0.4-0.3,0.6
		c-0.1,0.2-0.3,0.3-0.6,0.4c-0.2,0.1-0.5,0.2-0.8,0.2c-0.4,0-0.8-0.1-1.2-0.4c-0.4-0.3-0.6-0.7-0.7-1.2h0.9c0.1,0.5,0.4,0.7,0.9,0.7
		c0.2,0,0.4,0,0.5-0.1c0.1-0.1,0.2-0.2,0.3-0.3c0.1-0.1,0.1-0.3,0.1-0.4c0-0.2,0-0.3,0-0.4c0-0.4-0.1-0.6-0.2-0.9
		c-0.1-0.1-0.2-0.2-0.3-0.3c-0.1-0.1-0.3-0.1-0.5-0.1c-0.2,0-0.3,0-0.5,0.1c-0.1,0.1-0.3,0.2-0.4,0.4h-0.9V12.3z"/>
	<path class="st2" d="M56.7,14c0-0.6,0.2-1,0.6-1.3c0.4-0.3,0.8-0.5,1.3-0.5c0.5,0,0.9,0.2,1.3,0.5c0.4,0.3,0.5,0.7,0.6,1.3v2.7
		c0,0.6-0.2,1-0.6,1.3c-0.4,0.3-0.8,0.5-1.3,0.5c-0.5,0-0.9-0.2-1.3-0.5c-0.4-0.3-0.6-0.7-0.6-1.3V14z M59.5,14.1
		c0-0.6-0.3-0.9-0.9-0.9c-0.6,0-0.9,0.3-0.9,0.9v2.6c0,0.6,0.3,0.9,0.9,0.9c0.6,0,0.9-0.3,0.9-0.9V14.1z"/>
	<path class="st2" d="M61.1,14c0-0.6,0.2-1,0.6-1.3c0.4-0.3,0.8-0.5,1.3-0.5c0.5,0,0.9,0.2,1.3,0.5c0.4,0.3,0.5,0.7,0.6,1.3v2.7
		c0,0.6-0.2,1-0.6,1.3c-0.4,0.3-0.8,0.5-1.3,0.5c-0.5,0-0.9-0.2-1.3-0.5c-0.4-0.3-0.6-0.7-0.6-1.3V14z M63.9,14.1
		c0-0.6-0.3-0.9-0.9-0.9c-0.6,0-0.9,0.3-0.9,0.9v2.6c0,0.6,0.3,0.9,0.9,0.9c0.6,0,0.9-0.3,0.9-0.9V14.1z"/>
	<path class="st2" d="M66,13.9V13l0.9-0.6h0.9v6.2h-0.9v-5.2L66,13.9z"/>
	<path class="st2" d="M33,20.6h1v6.2h-1V20.6z"/>
	<path class="st2" d="M37.3,25.9c0.8,0,1.3-0.3,1.3-0.9c0-0.5-0.3-0.7-0.8-0.8c-0.3,0-0.5-0.1-0.9-0.1c-0.6-0.1-1-0.3-1.3-0.6
		c-0.3-0.3-0.4-0.7-0.4-1.1c0-0.5,0.2-1,0.6-1.3c0.4-0.3,0.9-0.5,1.6-0.5c0.8,0,1.5,0.2,2.1,0.6L38.8,22c-0.5-0.3-1-0.5-1.6-0.5
		c-0.3,0-0.6,0.1-0.8,0.2c-0.2,0.1-0.3,0.4-0.3,0.7c0,0.2,0.1,0.3,0.2,0.5c0.1,0.1,0.4,0.2,0.7,0.3c0.2,0,0.4,0.1,0.7,0.1
		c0.6,0.1,1.1,0.3,1.3,0.6c0.3,0.3,0.4,0.7,0.4,1.2c0,1.2-0.8,1.8-2.3,1.8c-1,0-1.8-0.3-2.5-0.8l0.6-0.7
		C36,25.7,36.6,25.9,37.3,25.9z"/>
	<path class="st2" d="M40.4,23.7c0-0.7,0-1.2,0.1-1.4c0-0.2,0.1-0.4,0.2-0.6c0.2-0.3,0.4-0.5,0.8-0.8c0.3-0.2,0.8-0.3,1.3-0.3
		c0.5,0,0.9,0.1,1.3,0.3c0.3,0.2,0.6,0.5,0.7,0.8c0.1,0.2,0.2,0.3,0.2,0.6c0,0.2,0.1,0.7,0.1,1.4c0,0.7,0,1.2-0.1,1.4
		c0,0.2-0.1,0.4-0.2,0.6c-0.2,0.3-0.4,0.5-0.7,0.8c-0.3,0.2-0.8,0.3-1.3,0.4c-0.5,0-0.9-0.1-1.3-0.4c-0.3-0.2-0.6-0.5-0.8-0.8
		c0-0.1-0.1-0.2-0.1-0.3c0-0.1-0.1-0.2-0.1-0.3C40.4,24.9,40.4,24.4,40.4,23.7z M41.4,23.7c0,0.6,0,1,0.1,1.2c0,0.2,0.1,0.4,0.3,0.5
		c0.1,0.1,0.2,0.2,0.4,0.3c0.2,0.1,0.4,0.1,0.6,0.1c0.2,0,0.4,0,0.6-0.1c0.2-0.1,0.3-0.2,0.4-0.3c0.1-0.1,0.2-0.3,0.3-0.5
		c0-0.2,0.1-0.6,0.1-1.2c0-0.6,0-1-0.1-1.2c0-0.2-0.1-0.4-0.3-0.5c-0.1-0.1-0.2-0.2-0.4-0.3c-0.2-0.1-0.4-0.1-0.6-0.1
		c-0.2,0-0.4,0-0.6,0.1c-0.2,0.1-0.3,0.2-0.4,0.3c-0.1,0.1-0.2,0.3-0.3,0.5C41.4,22.7,41.4,23.1,41.4,23.7z"/>
	<path class="st2" d="M48.5,22.2v-0.9l0.9-0.6h0.9v6.2h-0.9v-5.2L48.5,22.2z"/>
	<path class="st2" d="M52.1,25l2.2-4.4h1L53.1,25h1.7v-1.8h0.9V25h0.5v0.8h-0.5v0.9h-0.9v-0.9h-2.7V25z"/>
	<path class="st2" d="M56.7,22.3c0-0.6,0.2-1,0.6-1.3c0.4-0.3,0.8-0.5,1.3-0.5c0.5,0,0.9,0.2,1.3,0.5c0.4,0.3,0.5,0.7,0.6,1.3v2.7
		c0,0.6-0.2,1-0.6,1.3c-0.4,0.3-0.8,0.5-1.3,0.5c-0.5,0-0.9-0.2-1.3-0.5c-0.4-0.3-0.6-0.7-0.6-1.3V22.3z M59.5,22.4
		c0-0.6-0.3-0.9-0.9-0.9c-0.6,0-0.9,0.3-0.9,0.9V25c0,0.6,0.3,0.9,0.9,0.9c0.6,0,0.9-0.3,0.9-0.9V22.4z"/>
	<path class="st2" d="M61.1,22.3c0-0.6,0.2-1,0.6-1.3c0.4-0.3,0.8-0.5,1.3-0.5c0.5,0,0.9,0.2,1.3,0.5c0.4,0.3,0.5,0.7,0.6,1.3v2.7
		c0,0.6-0.2,1-0.6,1.3c-0.4,0.3-0.8,0.5-1.3,0.5c-0.5,0-0.9-0.2-1.3-0.5c-0.4-0.3-0.6-0.7-0.6-1.3V22.3z M63.9,22.4
		c0-0.6-0.3-0.9-0.9-0.9c-0.6,0-0.9,0.3-0.9,0.9V25c0,0.6,0.3,0.9,0.9,0.9c0.6,0,0.9-0.3,0.9-0.9V22.4z"/>
	<path class="st2" d="M66,22.2v-0.9l0.9-0.6h0.9v6.2h-0.9v-5.2L66,22.2z"/>
</g>
</svg>
