<?xml version="1.0" encoding="utf-8"?>
<!-- Generator: Adobe Illustrator 20.0.0, SVG Export Plug-In . SVG Version: 6.00 Build 0)  -->
<svg version="1.1" id="Layer_1" xmlns="http://www.w3.org/2000/svg" xmlns:xlink="http://www.w3.org/1999/xlink" x="0px" y="0px"
	 viewBox="0 0 180 38" style="enable-background:new 0 0 180 38;" xml:space="preserve">
<style type="text/css">
	.st0{fill:#006EB7;}
	.st1{fill:#80BA27;}
	.st2{fill:#FFFFFF;}
</style>
<path class="st0" d="M24.9,10.3L28.8,3c0.1-0.1,0.1-0.2,0.3-0.2h4c0.2,0,0.3,0.1,0.2,0.3l-3.5,6.6l0,0c0.2-0.1,0.5-0.1,0.9-0.1
	c2.9,0,5,2.2,5,5.4c0,3.4-2.6,5.7-6.2,5.7c-3.5,0-6.1-2.3-6.1-5.6C23.5,13.4,24,12.1,24.9,10.3 M29.6,17.2c1.2,0,2-0.9,2-2.1
	s-0.8-2.1-2-2.1c-1.2,0-2,0.9-2,2.1S28.4,17.2,29.6,17.2"/>
<path class="st0" d="M37.5,11.6c0-3.7,0.1-4.4,0.4-5.3c0.8-2.4,2.8-3.7,5.6-3.7c3,0,4.8,1.4,5.6,3.7c0.3,0.9,0.4,1.6,0.4,5.3
	s-0.1,4.4-0.4,5.3c-0.8,2.4-2.8,3.7-5.6,3.7c-2.9,0-4.8-1.4-5.6-3.7C37.7,16.1,37.5,15.3,37.5,11.6 M43.5,17.2c0.8,0,1.3-0.3,1.5-1
	c0.1-0.4,0.2-0.8,0.2-4.5s0-4.1-0.2-4.5c-0.2-0.7-0.7-1-1.5-1c-0.8,0-1.2,0.3-1.4,1c-0.2,0.4-0.2,0.8-0.2,4.5s0.1,4.1,0.2,4.5
	C42.3,16.9,42.8,17.2,43.5,17.2"/>
<path class="st0" d="M51.3,11.6c0-3.7,0.1-4.4,0.4-5.3c0.8-2.4,2.8-3.7,5.6-3.7c3,0,4.8,1.4,5.6,3.7c0.3,0.9,0.4,1.6,0.4,5.3
	S63.3,16.1,63,17c-0.8,2.4-2.8,3.7-5.6,3.7s-4.8-1.4-5.6-3.7C51.4,16.1,51.3,15.3,51.3,11.6 M57.4,17.2c0.8,0,1.3-0.3,1.5-1
	c0.1-0.4,0.2-0.8,0.2-4.5s0-4.1-0.2-4.5c-0.2-0.7-0.7-1-1.5-1c-0.8,0-1.2,0.3-1.4,1c-0.2,0.4-0.2,0.8-0.2,4.5s0.1,4.1,0.2,4.5
	C56.2,16.9,56.7,17.2,57.4,17.2"/>
<path class="st0" d="M74.9,17.3c0-0.2,0-0.2,0.1-0.4l6.2-6.9c0.7-0.7,1-1.4,1-2.2c0-1-0.6-1.7-1.6-1.7c-1,0-1.7,0.6-1.8,2
	c0,0.2-0.1,0.3-0.3,0.2l-3.4-0.5c-0.2,0-0.2-0.2-0.2-0.3c0.2-2.8,2.5-4.9,5.8-4.9s5.6,2.2,5.6,5.1c0,1.9-0.7,3.1-1.9,4.4l-4.2,4.6
	v0.1H86c0.2,0,0.3,0.1,0.3,0.3v3.1c0,0.2-0.1,0.3-0.3,0.3H75.2c-0.2,0-0.3-0.1-0.3-0.3C74.9,20.2,74.9,17.3,74.9,17.3z"/>
<path class="st0" d="M88.5,11.6c0-3.7,0.1-4.4,0.4-5.3c0.8-2.4,2.8-3.7,5.6-3.7c3,0,4.8,1.4,5.6,3.7c0.3,0.9,0.4,1.6,0.4,5.3
	s-0.1,4.4-0.4,5.3c-0.8,2.4-2.8,3.7-5.6,3.7s-4.8-1.4-5.6-3.7C88.6,16.1,88.5,15.3,88.5,11.6 M94.5,17.2c0.8,0,1.3-0.3,1.5-1
	c0.1-0.4,0.2-0.8,0.2-4.5S96.1,7.5,96,7.1c-0.2-0.7-0.7-1-1.5-1c-0.8,0-1.2,0.3-1.4,1C93,7.5,93,7.9,93,11.6s0.1,4.1,0.2,4.5
	C93.3,16.9,93.8,17.2,94.5,17.2"/>
<path class="st0" d="M102.3,11.6c0-3.7,0.1-4.4,0.4-5.3c0.8-2.4,2.8-3.7,5.6-3.7c3,0,4.8,1.4,5.6,3.7c0.3,0.9,0.4,1.6,0.4,5.3
	s-0.1,4.4-0.4,5.3c-0.8,2.4-2.8,3.7-5.6,3.7c-2.9,0-4.8-1.4-5.6-3.7C102.5,16.1,102.3,15.3,102.3,11.6 M108.4,17.2
	c0.8,0,1.3-0.3,1.5-1c0.1-0.4,0.2-0.8,0.2-4.5s0-4.1-0.2-4.5c-0.2-0.7-0.7-1-1.5-1s-1.2,0.3-1.4,1c-0.2,0.4-0.2,0.8-0.2,4.5
	s0.1,4.1,0.2,4.5C107.1,16.9,107.6,17.2,108.4,17.2"/>
<path class="st0" d="M125.7,17.7v-3.3c0-0.1,0-0.2,0.1-0.3l4.8-11c0.1-0.1,0.2-0.2,0.4-0.2h4c0.2,0,0.3,0.1,0.2,0.3l-4.9,11.1v0.1
	h2.5c0.1,0,0.2-0.1,0.2-0.2v-3.1c0-0.2,0.1-0.3,0.3-0.3h3.6c0.2,0,0.3,0.1,0.3,0.3v3.1c0,0.1,0,0.2,0.1,0.2h1c0.2,0,0.3,0.1,0.3,0.3
	v3.2c0,0.2-0.1,0.3-0.3,0.3h-1c-0.1,0-0.2,0.1-0.2,0.2v2.1c0,0.2-0.1,0.3-0.3,0.3h-3.6c-0.2,0-0.3-0.1-0.3-0.3V18
	c0-0.1,0-0.2-0.2-0.2h-6.8C125.9,17.9,125.7,17.8,125.7,17.7"/>
<path class="st0" d="M140.6,16.3l3.3-0.6c0.2,0,0.3,0.1,0.3,0.2c0.2,0.7,0.7,1.2,1.7,1.2c0.7,0,1.3-0.3,1.5-1
	c0.1-0.3,0.2-0.8,0.2-1.5c0-0.7,0-1.2-0.2-1.5c-0.2-0.7-0.8-1-1.5-1c-0.8,0-1.2,0.4-1.4,0.8c-0.1,0.2-0.2,0.3-0.4,0.3h-3.3
	c-0.2,0-0.3-0.1-0.3-0.3V3.1c0-0.2,0.1-0.3,0.3-0.3h10.2c0.2,0,0.3,0.1,0.3,0.3v3.1c0,0.2-0.1,0.3-0.3,0.3h-6.7
	c-0.1,0-0.2,0.1-0.2,0.2v3h0.1c0.5-0.5,1.4-0.9,2.8-0.9c2.2,0,3.8,0.9,4.4,3c0.2,0.7,0.4,1.6,0.4,3.1c0,1.1-0.2,2-0.4,2.7
	c-0.7,2.3-2.8,3.4-5.5,3.4c-3.2,0-5.4-1.8-5.6-4.1C140.3,16.4,140.4,16.3,140.6,16.3"/>
<path class="st0" d="M153.6,17.7v-3.3c0-0.1,0-0.2,0.1-0.3l4.8-11c0.1-0.1,0.2-0.2,0.4-0.2h4c0.2,0,0.3,0.1,0.2,0.3l-4.9,11.1v0.1
	h2.5c0.1,0,0.2-0.1,0.2-0.2v-3.1c0-0.2,0.1-0.3,0.3-0.3h3.6c0.2,0,0.3,0.1,0.3,0.3v3.1c0,0.1,0,0.2,0.1,0.2h1c0.2,0,0.3,0.1,0.3,0.3
	v3.2c0,0.2-0.1,0.3-0.3,0.3h-1c-0.1,0-0.2,0.1-0.2,0.2v2.1c0,0.2-0.1,0.3-0.3,0.3h-3.6c-0.2,0-0.3-0.1-0.3-0.3V18
	c0-0.1-0.1-0.2-0.2-0.2h-6.8C153.7,17.9,153.6,17.8,153.6,17.7"/>
<path class="st0" d="M168.5,16.3l3.3-0.6c0.2,0,0.3,0.1,0.3,0.2c0.2,0.7,0.7,1.2,1.7,1.2c0.7,0,1.3-0.3,1.5-1
	c0.1-0.3,0.2-0.8,0.2-1.5c0-0.7-0.1-1.2-0.2-1.5c-0.2-0.7-0.8-1-1.5-1c-0.8,0-1.2,0.4-1.4,0.8c-0.1,0.2-0.2,0.3-0.4,0.3h-3.3
	c-0.2,0-0.3-0.1-0.3-0.3V3.1c0-0.2,0.1-0.3,0.3-0.3H179c0.2,0,0.3,0.1,0.3,0.3v3.1c0,0.2-0.1,0.3-0.3,0.3h-6.7
	c-0.1,0-0.2,0.1-0.2,0.2v3h0.1c0.5-0.5,1.4-0.9,2.8-0.9c2.2,0,3.8,0.9,4.4,3c0.2,0.7,0.4,1.6,0.4,3.1c0,1.1-0.2,2-0.4,2.7
	c-0.7,2.3-2.8,3.4-5.5,3.4c-3.2,0-5.4-1.8-5.6-4.1C168.3,16.4,168.4,16.3,168.5,16.3"/>
<path class="st1" d="M87.7,35.1c0-0.1,0-0.1,0.1-0.2l4.3-4.9c0.5-0.5,0.6-1,0.6-1.5c0-0.7-0.4-1.2-1.1-1.2s-1.1,0.4-1.2,1.3
	c0,0.1-0.1,0.1-0.2,0.1l-2.4-0.4c-0.1,0-0.1-0.1-0.1-0.2c0.1-1.9,1.7-3.4,4-3.4c2.4,0,3.9,1.6,3.9,3.5c0,1.3-0.5,2.2-1.3,3l-2.9,3.3
	l0,0h4c0.1,0,0.1,0.1,0.1,0.1V37c0,0.1-0.1,0.1-0.1,0.1h-7.7c-0.1,0-0.1-0.1-0.1-0.1v-1.8C87.4,35.1,87.7,35.1,87.7,35.1z"/>
<path class="st1" d="M97.1,33.7v-2.2c0-0.1,0.1-0.1,0.1-0.1h5.5c0.1,0,0.1,0.1,0.1,0.1v2.2c0,0.1-0.1,0.1-0.1,0.1L97.1,33.7
	C97.2,33.9,97.1,33.8,97.1,33.7"/>
<path class="st1" d="M104.1,35.1c0-0.1,0-0.1,0.1-0.2l4.3-4.9c0.5-0.5,0.6-1,0.6-1.5c0-0.7-0.4-1.2-1.1-1.2s-1.1,0.4-1.2,1.3
	c0,0.1-0.1,0.1-0.2,0.1l-2.4-0.4c-0.1,0-0.1-0.1-0.1-0.2c0.1-1.9,1.7-3.4,4-3.4s3.9,1.6,3.9,3.5c0,1.3-0.5,2.2-1.3,3l-2.9,3.3l0,0h4
	c0.1,0,0.1,0.1,0.1,0.1V37c0,0.1-0.1,0.1-0.1,0.1H104c-0.1,0-0.1-0.1-0.1-0.1v-1.8C103.9,35.1,104.1,35.1,104.1,35.1z"/>
<path class="st1" d="M113.7,34.3l2.4-0.4c0.1,0,0.2,0,0.2,0.1c0.1,0.6,0.6,1,1.3,1c0.7,0,1.2-0.5,1.2-1.3c0-1-0.6-1.5-1.5-1.5H117
	c-0.1,0-0.1-0.1-0.1-0.1V30c0-0.1,0.1-0.1,0.1-0.1h0.5c0.9,0,1.3-0.5,1.3-1.2s-0.5-1.2-1.1-1.2s-1,0.4-1.2,1c0,0.1-0.1,0.1-0.2,0.1
	l-2.4-0.4c-0.1,0-0.1-0.1-0.1-0.2c0.4-1.7,1.7-3,4-3c2.6,0,4,1.5,4,3.4c0,1.1-0.5,1.9-1.3,2.6l0,0c0.7,0.4,1.6,1.3,1.6,2.9
	c0,2.2-1.7,3.8-4.1,3.8c-2.3,0-3.9-1.2-4.1-3C113.6,34.4,113.6,34.3,113.7,34.3"/>
<path class="st1" d="M124.2,30.4l2.7-5.1c0-0.1,0.1-0.1,0.2-0.1h2.8c0.1,0,0.1,0.1,0.1,0.2l-2.4,4.6l0,0c0.1,0,0.4-0.1,0.6-0.1
	c2.1,0,3.5,1.6,3.5,3.8c0,2.4-1.8,4-4.3,4c-2.6,0-4.3-1.6-4.3-3.9C123.2,32.5,123.5,31.6,124.2,30.4 M127.5,35.1
	c0.9,0,1.5-0.6,1.5-1.5s-0.6-1.5-1.5-1.5s-1.3,0.6-1.3,1.5C126,34.5,126.6,35.1,127.5,35.1"/>
<path class="st1" d="M136.3,28.5L136.3,28.5l-2.1,1.3c-0.1,0.1-0.2,0-0.2-0.1V27c0-0.1,0-0.1,0.1-0.2l2.2-1.6
	c0.1-0.1,0.2-0.1,0.4-0.1h2.6c0.1,0,0.1,0.1,0.1,0.1v11.9c0,0.1-0.1,0.1-0.1,0.1h-2.7c-0.1,0-0.1-0.1-0.1-0.1v-8.6
	C136.5,28.5,136.3,28.5,136.3,28.5z"/>
<path class="st1" d="M142.8,35.1c0-0.1,0-0.1,0.1-0.2l4.3-4.9c0.5-0.5,0.6-1,0.6-1.5c0-0.7-0.4-1.2-1.1-1.2s-1.1,0.4-1.2,1.3
	c0,0.1-0.1,0.1-0.2,0.1l-2.4-0.4c-0.1,0-0.1-0.1-0.1-0.2c0.1-1.9,1.7-3.4,4-3.4c2.4,0,3.9,1.6,3.9,3.5c0,1.3-0.5,2.2-1.3,3l-2.9,3.3
	l0,0h4c0.1,0,0.1,0.1,0.1,0.1V37c0,0.1-0.1,0.1-0.1,0.1h-7.7c-0.1,0-0.1-0.1-0.1-0.1v-1.8C142.6,35.1,142.8,35.1,142.8,35.1z"/>
<path class="st1" d="M153.5,31L153.5,31c-0.6-0.5-1.1-1.3-1.1-2.4c0-1.9,1.5-3.6,4-3.6s4,1.7,4,3.6c0,1.1-0.6,1.9-1.1,2.4l0,0
	c0.7,0.5,1.3,1.5,1.3,2.8c0,2.3-1.9,3.8-4.3,3.8c-2.4,0-4.3-1.5-4.3-3.8C152,32.5,152.8,31.5,153.5,31 M156.4,35.1
	c0.9,0,1.5-0.6,1.5-1.5s-0.6-1.5-1.5-1.5s-1.5,0.6-1.5,1.5C155,34.5,155.6,35.1,156.4,35.1 M157.6,28.6c0-0.6-0.5-1.2-1.2-1.2
	s-1.2,0.5-1.2,1.2c0,0.6,0.5,1.2,1.2,1.2C157.2,29.8,157.6,29.3,157.6,28.6"/>
<path class="st1" d="M162,35.1c0-0.1,0-0.1,0.1-0.2l4.3-4.9c0.5-0.5,0.6-1,0.6-1.5c0-0.7-0.4-1.2-1.1-1.2c-0.7,0-1.1,0.4-1.2,1.3
	c0,0.1-0.1,0.1-0.2,0.1l-2.4-0.4c-0.1,0-0.1-0.1-0.1-0.2c0.1-1.9,1.7-3.4,4-3.4c2.4,0,3.9,1.6,3.9,3.5c0,1.3-0.5,2.2-1.3,3l-2.9,3.3
	l0,0h4c0.1,0,0.1,0.1,0.1,0.1V37c0,0.1-0.1,0.1-0.1,0.1H162c-0.1,0-0.1-0.1-0.1-0.1v-1.8C161.8,35.1,162,35.1,162,35.1z"/>
<path class="st1" d="M172.4,30.4l2.7-5.1c0-0.1,0.1-0.1,0.2-0.1h2.8c0.1,0,0.1,0.1,0.1,0.2l-2.4,4.6l0,0c0.1,0,0.4-0.1,0.6-0.1
	c2.1,0,3.5,1.6,3.5,3.8c0,2.4-1.8,4-4.3,4c-2.6,0-4.3-1.6-4.3-3.9C171.4,32.5,171.7,31.6,172.4,30.4 M175.8,35.1
	c0.9,0,1.5-0.6,1.5-1.5s-0.6-1.5-1.5-1.5s-1.3,0.6-1.3,1.5C174.3,34.5,174.9,35.1,175.8,35.1"/>
<path class="st1" d="M0,10.3C0,16,4.6,20.6,10.3,20.6h10.3l-3.8-2.3c2.3-1.9,3.8-4.8,3.8-8C20.5,4.6,15.9,0,10.3,0
	C4.6,0,0,4.6,0,10.3"/>
<path class="st2" d="M14.8,14.2L13,11.7c-0.1-0.2-0.4-0.2-0.6-0.1L11.8,12l0,0l-0.4,0.4c-0.3-0.2-0.9-0.6-1.6-1.7
	c-0.8-1-1-1.7-1.1-2l0.5-0.3l0,0L9.8,8C10,7.9,10,7.6,9.9,7.4L8.2,4.8C8.1,4.6,7.8,4.6,7.6,4.7L7,5.1C5.9,5.9,5.7,7,5.7,7.2
	c0,1.2,0.9,3.4,2.1,5c1.2,1.7,2.9,3.2,4.1,3.7c0,0,0.1,0,0.3,0c0.4,0,1.2-0.1,2-0.6l0,0l0.6-0.4C14.8,14.7,14.9,14.4,14.8,14.2"/>
<g>
	<path class="st0" d="M8.9,33.3c0,2.4-1.8,4.1-4.2,4.1s-4.1-1.7-4.1-4.1s1.7-4.1,4.1-4.1C7.1,29.2,8.9,31,8.9,33.3z M2.9,33.3
		c0,1.2,0.8,2.1,1.8,2.1c1.1,0,1.9-0.9,1.9-2.1c0-1.2-0.8-2.1-1.9-2.1C3.7,31.2,2.9,32.1,2.9,33.3z"/>
	<path class="st0" d="M15.1,29.4h2.3v1.9h-2.3v3c0,0.7,0.4,1.1,1.1,1.1c0.5,0,0.8-0.1,1-0.2l0.6,1.8c-0.4,0.2-1,0.5-1.8,0.5
		c-1.9,0-3.2-1.1-3.2-3.1v-3h-1.4v-1.9h1.5v-2.6h2.3L15.1,29.4L15.1,29.4z"/>
	<path class="st0" d="M23.2,30.3l0.1-0.9h2.1v7.9h-2.1l-0.1-0.9c-0.4,0.6-1.2,1-2.3,1c-2.1,0-3.5-1.7-3.5-4.1s1.4-4.1,3.5-4.1
		C22.1,29.2,22.9,29.7,23.2,30.3z M19.8,33.3c0,1.3,0.7,2.1,1.8,2.1c0.8,0,1.3-0.4,1.6-1v-2.2c-0.3-0.6-0.8-1-1.6-1
		C20.6,31.2,19.8,32,19.8,33.3z"/>
	<path class="st0" d="M33.6,30.6c0.6-0.8,1.4-1.4,2.6-1.4c1.8,0,2.8,1.4,2.8,3.5v4.5h-2.3v-4.4c0-0.9-0.4-1.5-1.2-1.5
		c-0.7,0-1.1,0.4-1.5,0.9v5h-2.3v-4.4c0-0.9-0.4-1.5-1.2-1.5c-0.7,0-1.1,0.5-1.5,0.9v5h-2.3v-7.9h2.2l0.1,0.9c0.4-0.6,1.1-1,2.2-1
		C32.2,29.2,33.1,29.7,33.6,30.6z"/>
	<path class="st0" d="M42.5,30.1c0.4-0.4,1.1-0.9,2.2-0.9c2.1,0,3.5,1.7,3.5,4.1c0,2.4-1.4,4.1-3.5,4.1c-1.1,0-1.9-0.5-2.3-1
		l-0.1,0.9h-2.1V25.4h2.3C42.5,25.4,42.5,30.1,42.5,30.1z M42.5,32.2v2.2c0.3,0.6,0.8,1,1.6,1c1,0,1.8-0.8,1.8-2.1s-0.7-2.1-1.8-2.1
		C43.3,31.2,42.8,31.6,42.5,32.2z"/>
	<path class="st0" d="M51.3,26.9c0,0.8-0.6,1.3-1.3,1.3c-0.8,0-1.3-0.6-1.3-1.3s0.6-1.3,1.3-1.3C50.8,25.5,51.3,26.1,51.3,26.9z
		 M51.1,37.3h-2.2v-7.9h2.3L51.1,37.3L51.1,37.3z"/>
	<path class="st0" d="M59.5,33.2v0.7h-5.3c0,1,0.7,1.6,1.8,1.6c0.8,0,1.4-0.3,1.7-0.8l1.6,1.3c-0.8,0.9-1.9,1.4-3.3,1.4
		c-2.5,0-4.1-1.7-4.1-4.1s1.6-4.1,4-4.1C58.3,29.2,59.5,31.1,59.5,33.2z M54.1,32.5h3.1c0-0.9-0.6-1.6-1.5-1.6
		C54.8,30.9,54.2,31.6,54.1,32.5z M56.6,28.3h-2l2.1-2.3h2.6L56.6,28.3z"/>
	<path class="st0" d="M67.5,32.7v4.5h-2.3v-4.4c0-0.9-0.5-1.5-1.3-1.5c-0.7,0-1.2,0.5-1.5,0.9v5h-2.3v-7.9h2.1l0.1,0.9
		c0.4-0.6,1.2-1,2.2-1C66.4,29.2,67.5,30.6,67.5,32.7z"/>
	<path class="st0" d="M76.7,30.3l0.1-0.9h2.1v7.9h-2.1l-0.1-0.9c-0.4,0.6-1.2,1-2.3,1c-2.1,0-3.5-1.7-3.5-4.1s1.4-4.1,3.5-4.1
		C75.4,29.2,76.2,29.7,76.7,30.3z M73.2,33.3c0,1.3,0.7,2.1,1.8,2.1c0.8,0,1.3-0.4,1.6-1v-2.2c-0.3-0.6-0.8-1-1.6-1
		C73.8,31.2,73.2,32,73.2,33.3z"/>
	<path class="st0" d="M82.4,37.3h-2.3V25.4h2.3V37.3z"/>
</g>
<path class="st0" d="M64.5,13.4v-3.3c0-0.2,0.1-0.3,0.3-0.3h8c0.2,0,0.3,0.1,0.3,0.3v3.3c0,0.2-0.1,0.3-0.3,0.3h-8
	C64.6,13.7,64.5,13.6,64.5,13.4"/>
<path class="st0" d="M115.7,13.4v-3.3c0-0.2,0.1-0.3,0.3-0.3h8c0.2,0,0.3,0.1,0.3,0.3v3.3c0,0.2-0.1,0.3-0.3,0.3h-8
	C115.8,13.7,115.7,13.6,115.7,13.4"/>
</svg>
