<?xml version="1.0" encoding="utf-8"?>
<!-- Generator: Adobe Illustrator 19.2.1, SVG Export Plug-In . SVG Version: 6.00 Build 0)  -->
<!DOCTYPE svg PUBLIC "-//W3C//DTD SVG 1.1//EN" "http://www.w3.org/Graphics/SVG/1.1/DTD/svg11.dtd">
<svg version="1.1" id="Layer_1" xmlns="http://www.w3.org/2000/svg" xmlns:xlink="http://www.w3.org/1999/xlink" x="0px" y="0px"
	 viewBox="0 0 188.5 27.8" style="enable-background:new 0 0 188.5 27.8;" xml:space="preserve">
<style type="text/css">
	.st0{fill:#65B338;}
	.st1{fill:#FFFFFF;}
	.st2{fill:#0075BF;}
</style>
<title>twitter</title>
<path class="st0" d="M0,13.9c0.1,7.8,6.6,14,14.4,13.9c0,0,0,0,0,0h14.4l-5.4-3.1c3.4-2.6,5.4-6.6,5.4-10.8
	C28.6,6.1,22.2-0.1,14.4,0C6.6-0.2,0.1,6,0,13.9C0,13.8,0,13.8,0,13.9"/>
<path class="st1" d="M22.7,9.3c-0.6,0.2-1.1,0.4-1.8,0.5c0.6-0.4,1.1-0.9,1.3-1.6c-0.6,0.3-1.3,0.6-1.9,0.7
	c-0.6-0.6-1.4-0.9-2.2-0.9c-1.7,0-3,1.3-3.1,2.9c0,0,0,0,0,0.1c0,0.2,0,0.5,0.1,0.7c-2.4-0.1-4.7-1.2-6.3-3.1
	c-0.3,0.4-0.4,1-0.4,1.5c0,1,0.5,1.9,1.4,2.5c-0.5,0-1-0.1-1.4-0.4l0,0c0,1.4,1.1,2.6,2.5,2.9C10.6,15,10.3,15,10,15
	c-0.2,0-0.4,0-0.6-0.1c0.4,1.2,1.6,2,2.9,2c-1.3,1-2.9,1.4-4.5,1.2c1.4,0.9,3,1.3,4.7,1.3c4.7,0.1,8.6-3.6,8.7-8.3c0,0,0-0.1,0-0.1
	c0-0.1,0-0.2,0-0.4C21.7,10.4,22.3,9.9,22.7,9.3"/>
<path class="st2" d="M43.2,15.9c0.5,0.1,1-0.2,1.1-0.7c0.1-0.4,0.1-0.8,0.1-1.2c0-0.4,0-0.8-0.1-1.2c-0.1-0.5-0.6-0.8-1.1-0.8
	c-0.5,0-1,0.3-1.1,0.8C42,13,42,13.4,42,13.9c0,0.4,0,0.8,0.1,1.2C42.2,15.6,42.7,15.9,43.2,15.9 M43.3,5.7c5.2,0,8.6,3.3,8.6,8.2
	c0,2.9-1.9,4.2-3.9,4.2c-1.1,0.1-2.2-0.4-2.8-1.2l0,0c-0.5,0.8-1.2,1.3-2.8,1.3c-1.3,0.2-2.5-0.6-2.9-1.9c-0.3-0.8-0.4-1.6-0.3-2.4
	c0-0.8,0.1-1.6,0.3-2.4c0.3-1.2,1.5-2,2.7-1.9c0.9-0.1,1.7,0.3,2.2,1l0,0v-0.6c0-0.1,0-0.2,0.1-0.2c0,0,0.1,0,0.1,0H47
	c0.1,0,0.2,0.1,0.2,0.1c0,0,0,0,0,0v4.7c-0.1,0.5,0.3,1,0.9,1.1c0,0,0.1,0,0.1,0c0.7,0,1.2-0.6,1.2-2c0-3.6-2.3-5.9-6-5.9
	s-6,2.4-6,6s2.3,5.9,6,5.9c1.4,0,2.8-0.3,4.1-1c0.1-0.1,0.2,0,0.3,0.1c0,0,0,0,0,0l1,1.5c0.1,0.1,0,0.2,0,0.3c0,0,0,0,0,0
	c-1.6,1-3.5,1.5-5.3,1.4c-5.2,0-8.7-3.3-8.7-8.1S38.1,5.7,43.3,5.7"/>
<g>
	<path class="st2" d="M58.5,19.3v-0.8c-0.6,0.6-1.2,0.9-2.3,0.9c-1,0-1.9-0.3-2.4-0.9c-0.6-0.6-0.9-1.4-0.9-2.4c0-1.5,1-2.9,3.5-2.9
		h2.1v-0.3c0-0.9-0.5-1.3-1.5-1.3c-0.8,0-1.1,0.2-1.6,0.7l-1.9-1.9c1-1,2-1.4,3.7-1.4c2.9,0,4.5,1.2,4.5,3.7v6.6H58.5z M58.4,15.2
		h-1.6c-0.6,0-1,0.3-1,0.8c0,0.5,0.3,0.8,1,0.8c0.6,0,0.9-0.1,1.2-0.4c0.2-0.2,0.3-0.5,0.3-1V15.2z"/>
	<path class="st2" d="M67.3,22.7c-1.6,0-2.8-0.3-3.8-1.3l1.9-1.9c0.5,0.5,1,0.6,1.7,0.6c1.3,0,1.6-0.9,1.6-1.5v-0.7
		c-0.6,0.6-1.2,0.8-2.2,0.8c-1,0-1.8-0.3-2.4-0.9c-0.9-0.9-0.9-2.1-0.9-3.9c0-1.8,0-3,0.9-3.9C64.8,9.3,65.7,9,66.6,9
		c1,0,1.6,0.3,2.3,0.9V9.1h3v9.4C71.9,20.9,70.1,22.7,67.3,22.7z M67.6,11.8c-1.1,0-1.2,1-1.2,2c0,1,0.1,2,1.2,2c1.1,0,1.2-1,1.2-2
		C68.8,12.8,68.7,11.8,67.6,11.8z"/>
	<path class="st2" d="M79.8,19.3v-0.8c-0.6,0.6-1.5,0.9-2.4,0.9c-1,0-1.7-0.3-2.3-0.9c-0.9-0.9-1-1.8-1-2.9V9.1h3.1v6.1
		c0,1.2,0.8,1.4,1.2,1.4c0.4,0,1.2-0.2,1.2-1.4V9.1h3.1v10.1H79.8z"/>
	<path class="st2" d="M90.1,19.3v-0.8c-0.6,0.6-1.2,0.9-2.3,0.9c-1,0-1.9-0.3-2.4-0.9c-0.6-0.6-0.9-1.4-0.9-2.4c0-1.5,1-2.9,3.5-2.9
		H90v-0.3c0-0.9-0.5-1.3-1.5-1.3c-0.8,0-1.1,0.2-1.6,0.7l-1.9-1.9c1-1,2-1.4,3.7-1.4c2.9,0,4.5,1.2,4.5,3.7v6.6H90.1z M90,15.2h-1.6
		c-0.6,0-1,0.3-1,0.8c0,0.5,0.3,0.8,1,0.8c0.6,0,0.9-0.1,1.2-0.4c0.2-0.2,0.3-0.5,0.3-1V15.2z"/>
	<path class="st2" d="M98.7,19.4c-1.5,0-3-0.1-4.4-1.5l2-2c0.8,0.8,1.9,0.8,2.5,0.8c0.5,0,1.3-0.1,1.3-0.7c0-0.3-0.1-0.6-0.7-0.6
		l-1.6-0.2c-1.8-0.2-2.9-1-2.9-2.9c0-2.2,2-3.4,4-3.4c1.7,0,3,0.2,4,1.2l-1.9,1.9c-0.5-0.5-1.4-0.6-2.1-0.6c-0.8,0-1,0.4-1,0.6
		c0,0.1,0,0.5,0.7,0.6l1.6,0.2c2.1,0.2,3.1,1.5,3.1,3.1C103.1,18.4,101.1,19.4,98.7,19.4z"/>
	<path class="st2" d="M109.7,19.3v-0.8c-0.6,0.6-1.2,0.9-2.3,0.9c-1,0-1.9-0.3-2.4-0.9c-0.6-0.6-0.9-1.4-0.9-2.4
		c0-1.5,1-2.9,3.5-2.9h2.1v-0.3c0-0.9-0.5-1.3-1.5-1.3c-0.8,0-1.1,0.2-1.6,0.7l-1.9-1.9c1-1,2-1.4,3.7-1.4c2.9,0,4.5,1.2,4.5,3.7
		v6.6H109.7z M109.6,15.2h-1.6c-0.6,0-1,0.3-1,0.8c0,0.5,0.3,0.8,1,0.8c0.6,0,0.9-0.1,1.2-0.4c0.2-0.2,0.3-0.5,0.3-1V15.2z"/>
	<path class="st2" d="M120.4,12.3c-0.3-0.3-0.6-0.5-1.1-0.5c-0.4,0-1.2,0.2-1.2,1.4v6.1h-3.1V9.1h3V10c0.5-0.5,1.3-0.9,2.4-0.9
		c1,0,1.7,0.2,2.4,0.9L120.4,12.3z"/>
	<path class="st2" d="M128.6,19.3v-0.8c-0.6,0.6-1.2,0.9-2.3,0.9c-1,0-1.9-0.3-2.4-0.9c-0.6-0.6-0.9-1.4-0.9-2.4
		c0-1.5,1-2.9,3.5-2.9h2.1v-0.3c0-0.9-0.5-1.3-1.5-1.3c-0.8,0-1.1,0.2-1.6,0.7l-1.9-1.9c1-1,2-1.4,3.7-1.4c2.9,0,4.5,1.2,4.5,3.7
		v6.6H128.6z M128.5,15.2H127c-0.6,0-1,0.3-1,0.8c0,0.5,0.3,0.8,1,0.8c0.6,0,0.9-0.1,1.2-0.4c0.2-0.2,0.3-0.5,0.3-1V15.2z"/>
	<path class="st2" d="M139.3,19.3v-0.8c-0.6,0.6-1.5,0.9-2.4,0.9c-1,0-1.7-0.3-2.3-0.9c-0.9-0.9-1-1.8-1-2.9V9.1h3.1v6.1
		c0,1.2,0.8,1.4,1.2,1.4s1.2-0.2,1.2-1.4V9.1h3.1v10.1H139.3z"/>
	<path class="st2" d="M148.8,19.4c-1.8,0-4.6-0.8-4.6-5.2s2.8-5.2,4.6-5.2c1.4,0,2.5,0.5,3.3,1.3l-2.1,2.1c-0.4-0.4-0.7-0.6-1.2-0.6
		c-0.4,0-0.7,0.1-1,0.4c-0.4,0.4-0.5,1-0.5,2c0,1,0.2,1.6,0.5,2c0.3,0.3,0.5,0.4,1,0.4c0.5,0,0.8-0.2,1.2-0.6l2.1,2.1
		C151.3,18.9,150.2,19.4,148.8,19.4z"/>
	<path class="st2" d="M158.6,19.3v-0.8c-0.6,0.6-1.2,0.9-2.3,0.9c-1,0-1.9-0.3-2.4-0.9c-0.6-0.6-0.9-1.4-0.9-2.4
		c0-1.5,1-2.9,3.5-2.9h2.1v-0.3c0-0.9-0.5-1.3-1.5-1.3c-0.8,0-1.1,0.2-1.6,0.7l-1.9-1.9c1-1,2-1.4,3.7-1.4c2.9,0,4.5,1.2,4.5,3.7
		v6.6H158.6z M158.5,15.2H157c-0.6,0-1,0.3-1,0.8c0,0.5,0.3,0.8,1,0.8c0.6,0,0.9-0.1,1.2-0.4c0.2-0.2,0.3-0.5,0.3-1V15.2z"/>
	<path class="st2" d="M169.4,19.3v-6.1c0-1.2-0.8-1.4-1.2-1.4s-1.2,0.2-1.2,1.4v6.1h-3.1V9.1h3V10c0.6-0.6,1.5-0.9,2.4-0.9
		c1,0,1.7,0.3,2.3,0.9c0.9,0.9,1,1.8,1,2.9v6.5H169.4z"/>
	<path class="st2" d="M174.7,8.1V5.7h3.1v2.4H174.7z M174.7,19.3V9.5h3.1v9.8H174.7z"/>
	<path class="st2" d="M185.1,19.3v-0.8c-0.6,0.6-1.2,0.9-2.3,0.9c-1,0-1.9-0.3-2.4-0.9c-0.6-0.6-0.9-1.4-0.9-2.4
		c0-1.5,1-2.9,3.5-2.9h2.1v-0.3c0-0.9-0.5-1.3-1.5-1.3c-0.8,0-1.1,0.2-1.6,0.7l-1.9-1.9c1-1,2-1.4,3.7-1.4c2.9,0,4.5,1.2,4.5,3.7
		v6.6H185.1z M185,15.2h-1.6c-0.6,0-1,0.3-1,0.8c0,0.5,0.3,0.8,1,0.8c0.6,0,0.9-0.1,1.2-0.4c0.2-0.2,0.3-0.5,0.3-1V15.2z"/>
</g>
</svg>
